<?xml version="1.0" encoding="utf-8"?>
<!-- Generator: Adobe Illustrator 19.2.0, SVG Export Plug-In . SVG Version: 6.00 Build 0)  -->
<svg version="1.1" id="Layer_1" xmlns="http://www.w3.org/2000/svg" xmlns:xlink="http://www.w3.org/1999/xlink" x="0px" y="0px"
	 viewBox="0 0 841.9 468.2" style="enable-background:new 0 0 841.9 468.2;" xml:space="preserve">
<style type="text/css">
	.st0{fill:#FFFFFF;}
</style>
<path class="st0" d="M597.8,198.4c-11.4-22.6-26.8-42.6-45.8-59.5c-19.2-17-41.2-29.8-65.3-38c-9-3-18.8,1.6-21.8,10.6
	c-1.4,4.4-1.2,9,0.8,13.2s5.6,7.2,9.8,8.8c19.8,6.8,38,17.4,53.9,31.4c15.8,13.8,28.4,30.2,37.8,49.1c3,5.8,8.8,9.4,15.4,9.4
	c2.6,0,5.2-0.6,7.6-1.8C598.6,217.2,602,207,597.8,198.4"/>
<path class="st0" d="M322.5,142.7c10.4-1.4,17.8-11,16.4-21.4c-1.4-10.4-11-17.8-21.4-16.4c-1.8,0.2-43,5.8-92.5,16
	c26.2-52.1,50.3-91.5,50.5-91.9c5.4-9,2.6-20.8-6.4-26.2c-9-5.4-20.8-2.6-26.2,6.4c-1.4,2.4-34.6,57.3-65.7,122.5
	c-10.4,2.6-20.2,5.2-29.4,7.8c-4,1.2-8.2,2.4-12.6,3.8c15.4-30.4,28.4-52.7,28.4-52.9c2.6-4.4,3.2-9.6,2-14.4c-1.2-5-4.4-9-8.8-11.6
	c-4.4-2.6-9.6-3.2-14.4-2c-5,1.2-9,4.4-11.6,8.8c-1,1.8-25,42.8-47.1,90.9c-40.8,16.6-71.5,32.8-72.9,33.6
	c-4.4,2.4-7.8,6.4-9.2,11.2c-1.4,4.8-1,10,1.4,14.6c3.4,6.2,9.8,10,16.8,10c3.2,0,6.2-0.8,9-2.2c0.2,0,13.2-7,33.6-16.4
	c-24.2,66.5-32.8,136.5-33.2,139.5c-0.6,5,0.8,10,4,14c3.2,4,7.6,6.6,12.8,7.2c0.8,0,1.6,0.2,2.4,0.2c9.6,0,17.8-7.2,19-16.8
	c0-0.8,8.8-71.3,32.6-134.9c3.6-9.4,7.6-19.6,12.2-30.2c15.6-6,30.6-11,44.6-15.2c-4.8,11.6-9.2,22.8-13.2,33.2
	c-29,79.5-52.5,212.6-53.5,218.2c-1.8,10.4,5.2,20.2,15.6,22c1,0.2,2.2,0.2,3.2,0.2c9.2,0,17.2-6.6,18.8-15.8
	c0.2-1.4,23.8-135.5,51.7-211.6c6.6-17.8,14.8-37.4,24.4-58.7C264.3,150.5,321.9,142.7,322.5,142.7"/>
<path class="st0" d="M337.2,350.5L337.2,350.5c2.8,20.8,12.4,35.8,28.4,44.6c7.8,4.2,16.8,6.4,26.6,6.4c8.6,0,17.2-1.8,24.8-5.2
	c16.4-7.4,27.6-21.8,31.6-40.4c2.2-10.2-4.4-20.4-14.6-22.6c-5-1-10-0.2-14.4,2.6c-4.2,2.8-7.2,7-8.2,12c-1.4,6.8-4.8,11.4-10,13.8
	c-6.2,2.8-13.4,2.2-17,0.2c-11.2-6.2-11.2-24-7.4-54.9c2.4-18.6,9.4-61.1,20.2-102.5c12.8-48.9,32.2-94.7,32.4-95.3
	c4-9.6-0.4-20.8-10.2-25c-9.6-4.2-20.8,0.4-25,10.2c-0.8,2-20.6,49.1-34.2,100.3c-14,53.5-20.6,101.9-21.2,107.3
	C336.8,317.9,335,334.9,337.2,350.5"/>
<path class="st0" d="M525.8,311.5c8.6,0,17.4-2,26.4-5.8c4.6-2,8.2-5.8,10.2-10.4c1.8-4.8,1.8-10-0.2-14.6s-5.8-8.2-10.4-10.2
	c-4.6-1.8-9.6-1.8-14.2,0c3.2-8,4.8-16.4,4.8-25.2c0-37.8-31-68.7-69.1-68.7s-69.1,30.8-69.1,68.7s31,68.7,69.1,68.7
	c10.6,0,21-2.4,30.4-7C510.7,310.1,518.2,311.5,525.8,311.5 M503.9,245.4c0,16.8-13.8,30.4-30.8,30.4c-17,0-30.8-13.6-30.8-30.4
	c0-16.8,13.8-30.4,30.8-30.4C490.1,214.8,503.9,228.6,503.9,245.4"/>
<path class="st0" d="M255.3,320.5c1.2,0,2.4,0,3.8,0c10.6,0,25-2,38.4-10.2c14.4-8.8,24.2-22.6,29.2-41.2
	c10.2-37.6-1.6-72.1-2.2-73.5c-1.6-4.8-5.2-8.6-9.8-10.8s-9.8-2.4-14.6-0.8c-10,3.6-15.2,14.4-11.6,24.4c0,0.2,8.4,24.8,1.4,50.7
	c-3,10.8-8.8,18-17.6,21.2c-7.6,3-16.2,2.2-21.8,1.2c-10.6-1.8-20.4-14.6-20.6-26.2c0-19,12.6-39.8,12.8-40c5.4-9,2.6-20.8-6.2-26.2
	c-4.4-2.6-9.4-3.4-14.4-2.4c-5,1.2-9.2,4.2-11.8,8.6c-0.8,1.2-18.4,30-18.4,60.3c0,30,23.4,58.7,51.9,63.7
	C247.5,319.9,251.3,320.3,255.3,320.5"/>
<path class="st0" d="M556.6,454.6c3.4,3.2,8.2,4.8,14.4,4.8c12.8,0,19.4-6,19.4-17.6v-87.7c0-5.8-1.6-10.4-5.2-13.6l0,0
	c-3.4-3.2-8.2-4.8-14.4-4.8c-12.8,0-19.4,6-19.4,17.6v24.8h-35.8v-24.8c0-11.8-6.6-17.6-19.4-17.6c-12.8,0-19.4,6.2-19.4,18.4v87.7
	c0,11.8,6.6,17.6,19.4,17.6c12.8,0,19.4-6.2,19.4-18.4v-29.8h35.8V441C551.6,447,553.2,451.4,556.6,454.6"/>
<path class="st0" d="M625.9,335.7c-6,0-10.8,1.6-14.2,4.8c-3.4,3.2-5.2,7.6-5.2,13.6v60.7c0,15,4.8,26.2,14.4,34.4
	c9.6,8,23.4,12.2,40.8,12.2c17.4,0,31.2-4,40.6-12.2c9.6-8,14.4-19.6,14.4-34.4v-60.7c0-5.8-1.6-10.4-5.2-13.6l0,0
	c-3.4-3.2-8.2-4.8-14.2-4.8c-13,0-19.6,6-19.6,17.6v58.3c0,6.6-1.2,11.2-3.8,14.2c-2.4,3-6.8,4.4-12.6,4.4c-6,0-10.2-1.4-12.6-4.4
	c-2.6-3-3.8-7.6-3.8-14.2v-58.3C645.5,341.7,638.9,335.7,625.9,335.7"/>
<path class="st0" d="M818.9,340.9c-6.2-2.4-17.2-3.6-32.6-3.6H757c-8.8,0-14.8,1.6-18.2,4.8c-3.4,3.2-5.2,9.2-5.2,17.4v75.9
	c0,8.4,1.8,14.2,5.2,17.4c3.4,3.2,9.4,4.8,18.2,4.8h30c9.2,0,16-0.2,20.2-0.6c6.8-0.8,12.6-2.4,17.2-4.8
	c11.6-5.8,17.4-16.2,17.4-30.8c0-12.4-5-21.4-14.6-26.4l-3.4-1.8l3-2.2c7.2-5.2,10.8-12.6,10.8-22
	C837.9,354.9,831.7,345.7,818.9,340.9 M770.4,363.5h10.4c11.2,0,15.4,1.2,16.8,1.8c1,0.4,4.2,1.8,4.2,8.2c0,5-1.8,6.8-3,7.6
	c-2.2,1.6-6.2,2.2-11.8,2.2h-16.4v-19.8H770.4z M803.1,429.6L803.1,429.6c-2.8,1.8-7.4,2.6-13.8,2.6H770V410h18.8
	c6.6,0,11.4,0.8,14,2.6c2.6,1.6,3.6,4.2,3.6,8.4C806.7,425.2,805.7,427.8,803.1,429.6"/>
<path class="st0" d="M439.1,425c-4.6-2.4-9.6-2.8-14.6-1.4l0,0c-54.9,16.8-131.1,1.4-177.8-70.5c-5.8-8.8-17.6-11.4-26.4-5.6
	c-4.2,2.8-7.2,7-8.2,12s-0.2,10,2.6,14.4c26.2,40.4,62.7,69.5,105.5,83.9c22.2,7.6,45.2,11,68.5,10.2c16.2-0.6,32-3.2,47.1-7.8
	c4.8-1.4,8.8-4.8,11.2-9.2s2.8-9.6,1.4-14.6C446.9,431.4,443.7,427.4,439.1,425"/>
</svg>
